Coordinates
version=1
nRows=8
nColumns=40
inDegrees=yes

Units are S.I. units (second, meters, Newtons, ...)
Angles are in degrees.

endheader
time	pelvis_tilt	pelvis_list	pelvis_rotation	pelvis_tx	pelvis_ty	pelvis_tz	hip_flexion_r	hip_adduction_r	hip_rotation_r	knee_angle_r	knee_angle_r_beta	ankle_angle_r	subtalar_angle_r	mtp_angle_r	hip_flexion_l	hip_adduction_l	hip_rotation_l	knee_angle_l	knee_angle_l_beta	ankle_angle_l	subtalar_angle_l	mtp_angle_l	lumbar_extension	lumbar_bending	lumbar_rotation	arm_flex_r	arm_add_r	arm_rot_r	elbow_flex_r	pro_sup_r	wrist_flex_r	wrist_dev_r	arm_flex_l	arm_add_l	arm_rot_l	elbow_flex_l	pro_sup_l	wrist_flex_l	wrist_dev_l
     20.83342857	     -3.97765961	     -3.60094448	     -1.21648177	      0.79819815	      0.93391981	      0.42100875	     31.63763890	     -6.04571063	     -7.32877996	     54.62804150	     54.62804150	      2.61003221	    -12.06299599	     -1.18467080	     10.51412259	     -2.92132030	     -9.39125180	     18.15350473	     18.15350473	     14.45812105	     -6.41225698	     -1.29638900	    -10.41590637	      4.94061413	      2.09407518	     -1.42789295	    -13.06855124	     -1.49558606	     27.33615472	     46.50988165	      0.00000000	      0.00000000	     16.91803689	    -15.93538602	     -9.82587592	     68.27752167	     47.17594157	      0.00000000	      0.00000000
     20.84685714	     -4.25960747	     -3.57980412	     -1.36526885	      0.79700257	      0.93368903	      0.42149503	     31.97829130	     -5.86369710	     -7.69027415	     51.44453865	     51.44453865	      2.77621903	    -11.57822486	     -0.91555837	     10.12629184	     -2.92168914	     -9.67303043	     17.63149311	     17.63149311	     14.60675121	     -6.01578867	     -1.49820730	    -10.19125035	      4.79250365	      1.75502376	     -2.85017558	    -13.13015284	     -1.52369286	     26.82100285	     46.51934790	      0.00000000	      0.00000000	     17.52188592	    -16.43047939	    -10.16060405	     69.08945396	     47.21843970	      0.00000000	      0.00000000
     20.86028571	     -4.27112333	     -3.50065488	     -1.56555217	      0.79609143	      0.93372082	      0.42216078	     31.83897406	     -5.68774218	     -8.01026561	     47.93003649	     47.93003649	      2.81849153	    -10.97820233	     -1.07198787	      9.30909710	     -2.92465225	    -10.44857106	     16.91195972	     16.91195972	     14.68300235	     -4.90494432	     -2.30441914	    -10.35239616	      4.50180340	      1.72605331	     -4.31815194	    -13.23292282	     -1.73014066	     26.43861747	     46.53278230	      0.00000000	      0.00000000	     17.88175754	    -16.58065897	    -10.77163909	     71.15531266	     47.30794343	      0.00000000	      0.00000000
     20.87371429	     -4.57061186	     -3.44340321	     -1.68572379	      0.79498357	      0.93307895	      0.42292506	     31.93891122	     -5.47765534	     -8.40112556	     44.32072211	     44.32072211	      2.96228417	    -10.31615406	     -0.71786506	      9.03210959	     -2.89985797	    -10.64579702	     16.56695817	     16.56695817	     14.86862458	     -4.65730642	     -2.50931285	    -10.10570040	      4.28109862	      1.32887857	     -5.59336995	    -13.26601618	     -1.79557026	     26.09175951	     46.53932446	      0.00000000	      0.00000000	     18.40048842	    -17.07073644	    -11.06222230	     71.75014894	     47.34234397	      0.00000000	      0.00000000
     20.88714286	     -4.74836866	     -3.41681536	     -1.78632912	      0.79410385	      0.93259496	      0.42375688	     31.69757481	     -5.22032502	     -8.86568394	     40.44694552	     40.44694552	      3.08326836	     -9.37940893	     -0.36320351	      8.55584756	     -2.91178192	    -10.91383559	     16.12083583	     16.12083583	     15.07195668	     -4.23275841	     -2.77593618	     -9.98718355	      4.10167276	      1.10837767	     -6.86356944	    -13.32211725	     -1.89403211	     25.80689155	     46.54570809	      0.00000000	      0.00000000	     18.87117499	    -17.35319666	    -11.34025345	     72.53089574	     47.37876423	      0.00000000	      0.00000000
     20.90057143	     -4.77301801	     -3.35579099	     -1.87079804	      0.79342282	      0.93216114	      0.42461931	     31.16051216	     -4.99702445	     -9.40258938	     36.48346514	     36.48346514	      3.18646454	     -8.10340756	     -0.10712192	      7.90067416	     -2.90125617	    -11.30193576	     15.68116670	     15.68116670	     15.27328774	     -3.59265788	     -3.20718456	    -10.07946989	      3.92315225	      0.97662327	     -8.13884501	    -13.45083434	     -2.09695272	     25.69090706	     46.55227359	      0.00000000	      0.00000000	     19.23136555	    -17.43466341	    -11.64024731	     73.51549046	     47.42031773	      0.00000000	      0.00000000
     20.91400000	     -4.82183915	     -3.27328541	     -1.96768166	      0.79297217	      0.93139744	      0.42567572	     30.57362729	     -4.77258713	    -10.00427124	     32.57946115	     32.57946115	      3.10866831	     -6.58172258	     -0.57481882	      7.30194744	     -2.94397772	    -12.01719733	     15.34373423	     15.34373423	     15.39810607	     -2.53572863	     -4.44071834	    -10.10811839	      3.67076238	      0.76639914	     -9.56390299	    -13.45074561	     -3.09460131	     26.59455889	     46.56573497	      0.00000000	      0.00000000	     19.27917402	    -17.52042253	    -12.35688610	     75.05703248	     47.51995802	      0.00000000	      0.00000000
     20.92742857	     -4.99038710	     -3.20422538	     -2.03257130	      0.79251952	      0.93046486	      0.42681377	     30.07505489	     -4.44236262	    -10.44687222	     28.80842572	     28.80842572	      3.13102119	     -5.10648097	      0.01922524	      6.87393444	     -2.90733395	    -12.12082026	     15.05244840	     15.05244840	     15.66713545	     -2.39179601	     -4.65191815	     -9.92625571	      3.49294307	      0.56809684	    -10.55021241	    -13.45788721	     -3.24075618	     26.38870460	     46.57424565	      0.00000000	      0.00000000	     19.56567402	    -17.66458278	    -12.47422058	     75.37088046	     47.53969328	      0.00000000	      0.00000000
